<svg xmlns="http://www.w3.org/2000/svg" viewBox="0 0 64 64">
  <defs><linearGradient id="g" x1="8" y1="5" x2="56" y2="59" gradientUnits="userSpaceOnUse"><stop stop-color="#8173ff"/><stop offset="1" stop-color="#5142df"/></linearGradient></defs>
  <rect x="3" y="3" width="58" height="58" rx="17" fill="url(#g)"/>
  <path d="M20 14h17l10 10v24a4 4 0 0 1-4 4H20a4 4 0 0 1-4-4V18a4 4 0 0 1 4-4Z" fill="#fff" fill-opacity=".96"/>
  <path d="M37 14v10h10M23 32h16M23 39h11" fill="none" stroke="#6354e8" stroke-width="3.5" stroke-linecap="round" stroke-linejoin="round"/>
  <path d="m48 8 1.7 4.3L54 14l-4.3 1.7L48 20l-1.7-4.3L42 14l4.3-1.7Z" fill="#ffd76a"/>
</svg>
